<?xml version="1.0" encoding="utf-8" standalone="no"?>
<!DOCTYPE svg PUBLIC "-//W3C//DTD SVG 1.1//EN"
  "http://www.w3.org/Graphics/SVG/1.1/DTD/svg11.dtd">
<svg height="360pt" version="1.1" viewBox="0 0 1080 360" width="1080pt" xmlns="http://www.w3.org/2000/svg" xmlns:xlink="http://www.w3.org/1999/xlink">
 <metadata>
  <rdf:RDF xmlns:cc="http://creativecommons.org/ns#" xmlns:dc="http://purl.org/dc/elements/1.1/" xmlns:rdf="http://www.w3.org/1999/02/22-rdf-syntax-ns#">
   <cc:Work>
    <dc:type rdf:resource="http://purl.org/dc/dcmitype/StillImage"/>
    <dc:date>2022-04-15T21:53:33.822411</dc:date>
    <dc:format>image/svg+xml</dc:format>
    <dc:creator>
     <cc:Agent>
      <dc:title>Matplotlib v3.4.3, https://matplotlib.org/</dc:title>
     </cc:Agent>
    </dc:creator>
   </cc:Work>
  </rdf:RDF>
 </metadata>
 <defs>
  <style type="text/css">*{stroke-linecap:butt;stroke-linejoin:round;}</style>
 </defs>
 <g id="figure_1">
  <g id="patch_1">
   <path d="M 0 360 
L 1080 360 
L 1080 0 
L 0 0 
z
" style="fill:none;"/>
  </g>
  <g id="axes_1">
   <g id="patch_2">
    <path d="M 135 315 
L 972 315 
L 972 43.2 
L 135 43.2 
z
" style="fill:#ffffff;"/>
   </g>
   <g id="matplotlib.axis_1">
    <g id="xtick_1">
     <g id="line2d_1">
      <defs>
       <path d="M 0 0 
L 0 3.5 
" id="m874f641145" style="stroke:#000000;stroke-width:0.8;"/>
      </defs>
      <g>
       <use style="stroke:#000000;stroke-width:0.8;" x="153.021531" xlink:href="#m874f641145" y="315"/>
      </g>
     </g>
     <g id="text_1">
      <!-- 40 -->
      <g transform="translate(146.659031 329.598437)scale(0.1 -0.1)">
       <defs>
        <path d="M 2419 4116 
L 825 1625 
L 2419 1625 
L 2419 4116 
z
M 2253 4666 
L 3047 4666 
L 3047 1625 
L 3713 1625 
L 3713 1100 
L 3047 1100 
L 3047 0 
L 2419 0 
L 2419 1100 
L 313 1100 
L 313 1709 
L 2253 4666 
z
" id="DejaVuSans-34" transform="scale(0.015625)"/>
        <path d="M 2034 4250 
Q 1547 4250 1301 3770 
Q 1056 3291 1056 2328 
Q 1056 1369 1301 889 
Q 1547 409 2034 409 
Q 2525 409 2770 889 
Q 3016 1369 3016 2328 
Q 3016 3291 2770 3770 
Q 2525 4250 2034 4250 
z
M 2034 4750 
Q 2819 4750 3233 4129 
Q 3647 3509 3647 2328 
Q 3647 1150 3233 529 
Q 2819 -91 2034 -91 
Q 1250 -91 836 529 
Q 422 1150 422 2328 
Q 422 3509 836 4129 
Q 1250 4750 2034 4750 
z
" id="DejaVuSans-30" transform="scale(0.015625)"/>
       </defs>
       <use xlink:href="#DejaVuSans-34"/>
       <use x="63.623047" xlink:href="#DejaVuSans-30"/>
      </g>
     </g>
    </g>
    <g id="xtick_2">
     <g id="line2d_2">
      <g>
       <use style="stroke:#000000;stroke-width:0.8;" x="253.141148" xlink:href="#m874f641145" y="315"/>
      </g>
     </g>
     <g id="text_2">
      <!-- 45 -->
      <g transform="translate(246.778648 329.598437)scale(0.1 -0.1)">
       <defs>
        <path d="M 691 4666 
L 3169 4666 
L 3169 4134 
L 1269 4134 
L 1269 2991 
Q 1406 3038 1543 3061 
Q 1681 3084 1819 3084 
Q 2600 3084 3056 2656 
Q 3513 2228 3513 1497 
Q 3513 744 3044 326 
Q 2575 -91 1722 -91 
Q 1428 -91 1123 -41 
Q 819 9 494 109 
L 494 744 
Q 775 591 1075 516 
Q 1375 441 1709 441 
Q 2250 441 2565 725 
Q 2881 1009 2881 1497 
Q 2881 1984 2565 2268 
Q 2250 2553 1709 2553 
Q 1456 2553 1204 2497 
Q 953 2441 691 2322 
L 691 4666 
z
" id="DejaVuSans-35" transform="scale(0.015625)"/>
       </defs>
       <use xlink:href="#DejaVuSans-34"/>
       <use x="63.623047" xlink:href="#DejaVuSans-35"/>
      </g>
     </g>
    </g>
    <g id="xtick_3">
     <g id="line2d_3">
      <g>
       <use style="stroke:#000000;stroke-width:0.8;" x="353.260766" xlink:href="#m874f641145" y="315"/>
      </g>
     </g>
     <g id="text_3">
      <!-- 50 -->
      <g transform="translate(346.898266 329.598437)scale(0.1 -0.1)">
       <use xlink:href="#DejaVuSans-35"/>
       <use x="63.623047" xlink:href="#DejaVuSans-30"/>
      </g>
     </g>
    </g>
    <g id="xtick_4">
     <g id="line2d_4">
      <g>
       <use style="stroke:#000000;stroke-width:0.8;" x="453.380383" xlink:href="#m874f641145" y="315"/>
      </g>
     </g>
     <g id="text_4">
      <!-- 55 -->
      <g transform="translate(447.017883 329.598437)scale(0.1 -0.1)">
       <use xlink:href="#DejaVuSans-35"/>
       <use x="63.623047" xlink:href="#DejaVuSans-35"/>
      </g>
     </g>
    </g>
    <g id="xtick_5">
     <g id="line2d_5">
      <g>
       <use style="stroke:#000000;stroke-width:0.8;" x="553.5" xlink:href="#m874f641145" y="315"/>
      </g>
     </g>
     <g id="text_5">
      <!-- 60 -->
      <g transform="translate(547.1375 329.598437)scale(0.1 -0.1)">
       <defs>
        <path d="M 2113 2584 
Q 1688 2584 1439 2293 
Q 1191 2003 1191 1497 
Q 1191 994 1439 701 
Q 1688 409 2113 409 
Q 2538 409 2786 701 
Q 3034 994 3034 1497 
Q 3034 2003 2786 2293 
Q 2538 2584 2113 2584 
z
M 3366 4563 
L 3366 3988 
Q 3128 4100 2886 4159 
Q 2644 4219 2406 4219 
Q 1781 4219 1451 3797 
Q 1122 3375 1075 2522 
Q 1259 2794 1537 2939 
Q 1816 3084 2150 3084 
Q 2853 3084 3261 2657 
Q 3669 2231 3669 1497 
Q 3669 778 3244 343 
Q 2819 -91 2113 -91 
Q 1303 -91 875 529 
Q 447 1150 447 2328 
Q 447 3434 972 4092 
Q 1497 4750 2381 4750 
Q 2619 4750 2861 4703 
Q 3103 4656 3366 4563 
z
" id="DejaVuSans-36" transform="scale(0.015625)"/>
       </defs>
       <use xlink:href="#DejaVuSans-36"/>
       <use x="63.623047" xlink:href="#DejaVuSans-30"/>
      </g>
     </g>
    </g>
    <g id="xtick_6">
     <g id="line2d_6">
      <g>
       <use style="stroke:#000000;stroke-width:0.8;" x="653.619617" xlink:href="#m874f641145" y="315"/>
      </g>
     </g>
     <g id="text_6">
      <!-- 65 -->
      <g transform="translate(647.257117 329.598437)scale(0.1 -0.1)">
       <use xlink:href="#DejaVuSans-36"/>
       <use x="63.623047" xlink:href="#DejaVuSans-35"/>
      </g>
     </g>
    </g>
    <g id="xtick_7">
     <g id="line2d_7">
      <g>
       <use style="stroke:#000000;stroke-width:0.8;" x="753.739234" xlink:href="#m874f641145" y="315"/>
      </g>
     </g>
     <g id="text_7">
      <!-- 70 -->
      <g transform="translate(747.376734 329.598437)scale(0.1 -0.1)">
       <defs>
        <path d="M 525 4666 
L 3525 4666 
L 3525 4397 
L 1831 0 
L 1172 0 
L 2766 4134 
L 525 4134 
L 525 4666 
z
" id="DejaVuSans-37" transform="scale(0.015625)"/>
       </defs>
       <use xlink:href="#DejaVuSans-37"/>
       <use x="63.623047" xlink:href="#DejaVuSans-30"/>
      </g>
     </g>
    </g>
    <g id="xtick_8">
     <g id="line2d_8">
      <g>
       <use style="stroke:#000000;stroke-width:0.8;" x="853.858852" xlink:href="#m874f641145" y="315"/>
      </g>
     </g>
     <g id="text_8">
      <!-- 75 -->
      <g transform="translate(847.496352 329.598437)scale(0.1 -0.1)">
       <use xlink:href="#DejaVuSans-37"/>
       <use x="63.623047" xlink:href="#DejaVuSans-35"/>
      </g>
     </g>
    </g>
    <g id="xtick_9">
     <g id="line2d_9">
      <g>
       <use style="stroke:#000000;stroke-width:0.8;" x="953.978469" xlink:href="#m874f641145" y="315"/>
      </g>
     </g>
     <g id="text_9">
      <!-- 80 -->
      <g transform="translate(947.615969 329.598437)scale(0.1 -0.1)">
       <defs>
        <path d="M 2034 2216 
Q 1584 2216 1326 1975 
Q 1069 1734 1069 1313 
Q 1069 891 1326 650 
Q 1584 409 2034 409 
Q 2484 409 2743 651 
Q 3003 894 3003 1313 
Q 3003 1734 2745 1975 
Q 2488 2216 2034 2216 
z
M 1403 2484 
Q 997 2584 770 2862 
Q 544 3141 544 3541 
Q 544 4100 942 4425 
Q 1341 4750 2034 4750 
Q 2731 4750 3128 4425 
Q 3525 4100 3525 3541 
Q 3525 3141 3298 2862 
Q 3072 2584 2669 2484 
Q 3125 2378 3379 2068 
Q 3634 1759 3634 1313 
Q 3634 634 3220 271 
Q 2806 -91 2034 -91 
Q 1263 -91 848 271 
Q 434 634 434 1313 
Q 434 1759 690 2068 
Q 947 2378 1403 2484 
z
M 1172 3481 
Q 1172 3119 1398 2916 
Q 1625 2713 2034 2713 
Q 2441 2713 2670 2916 
Q 2900 3119 2900 3481 
Q 2900 3844 2670 4047 
Q 2441 4250 2034 4250 
Q 1625 4250 1398 4047 
Q 1172 3844 1172 3481 
z
" id="DejaVuSans-38" transform="scale(0.015625)"/>
       </defs>
       <use xlink:href="#DejaVuSans-38"/>
       <use x="63.623047" xlink:href="#DejaVuSans-30"/>
      </g>
     </g>
    </g>
    <g id="text_10">
     <!-- X -->
     <g transform="translate(546.65 350.875)scale(0.2 -0.2)">
      <defs>
       <path d="M 403 4666 
L 1081 4666 
L 2241 2931 
L 3406 4666 
L 4084 4666 
L 2584 2425 
L 4184 0 
L 3506 0 
L 2194 1984 
L 872 0 
L 191 0 
L 1856 2491 
L 403 4666 
z
" id="DejaVuSans-58" transform="scale(0.015625)"/>
      </defs>
      <use xlink:href="#DejaVuSans-58"/>
     </g>
    </g>
   </g>
   <g id="matplotlib.axis_2">
    <g id="ytick_1">
     <g id="line2d_10">
      <defs>
       <path d="M 0 0 
L -3.5 0 
" id="mad904d5c99" style="stroke:#000000;stroke-width:0.8;"/>
      </defs>
      <g>
       <use style="stroke:#000000;stroke-width:0.8;" x="135" xlink:href="#mad904d5c99" y="302.818639"/>
      </g>
     </g>
     <g id="text_11">
      <!-- 0 -->
      <g transform="translate(121.6375 306.617858)scale(0.1 -0.1)">
       <use xlink:href="#DejaVuSans-30"/>
      </g>
     </g>
    </g>
    <g id="ytick_2">
     <g id="line2d_11">
      <g>
       <use style="stroke:#000000;stroke-width:0.8;" x="135" xlink:href="#mad904d5c99" y="266.026421"/>
      </g>
     </g>
     <g id="text_12">
      <!-- 250 -->
      <g transform="translate(108.9125 269.82564)scale(0.1 -0.1)">
       <defs>
        <path d="M 1228 531 
L 3431 531 
L 3431 0 
L 469 0 
L 469 531 
Q 828 903 1448 1529 
Q 2069 2156 2228 2338 
Q 2531 2678 2651 2914 
Q 2772 3150 2772 3378 
Q 2772 3750 2511 3984 
Q 2250 4219 1831 4219 
Q 1534 4219 1204 4116 
Q 875 4013 500 3803 
L 500 4441 
Q 881 4594 1212 4672 
Q 1544 4750 1819 4750 
Q 2544 4750 2975 4387 
Q 3406 4025 3406 3419 
Q 3406 3131 3298 2873 
Q 3191 2616 2906 2266 
Q 2828 2175 2409 1742 
Q 1991 1309 1228 531 
z
" id="DejaVuSans-32" transform="scale(0.015625)"/>
       </defs>
       <use xlink:href="#DejaVuSans-32"/>
       <use x="63.623047" xlink:href="#DejaVuSans-35"/>
       <use x="127.246094" xlink:href="#DejaVuSans-30"/>
      </g>
     </g>
    </g>
    <g id="ytick_3">
     <g id="line2d_12">
      <g>
       <use style="stroke:#000000;stroke-width:0.8;" x="135" xlink:href="#mad904d5c99" y="229.234203"/>
      </g>
     </g>
     <g id="text_13">
      <!-- 500 -->
      <g transform="translate(108.9125 233.033422)scale(0.1 -0.1)">
       <use xlink:href="#DejaVuSans-35"/>
       <use x="63.623047" xlink:href="#DejaVuSans-30"/>
       <use x="127.246094" xlink:href="#DejaVuSans-30"/>
      </g>
     </g>
    </g>
    <g id="ytick_4">
     <g id="line2d_13">
      <g>
       <use style="stroke:#000000;stroke-width:0.8;" x="135" xlink:href="#mad904d5c99" y="192.441985"/>
      </g>
     </g>
     <g id="text_14">
      <!-- 750 -->
      <g transform="translate(108.9125 196.241204)scale(0.1 -0.1)">
       <use xlink:href="#DejaVuSans-37"/>
       <use x="63.623047" xlink:href="#DejaVuSans-35"/>
       <use x="127.246094" xlink:href="#DejaVuSans-30"/>
      </g>
     </g>
    </g>
    <g id="ytick_5">
     <g id="line2d_14">
      <g>
       <use style="stroke:#000000;stroke-width:0.8;" x="135" xlink:href="#mad904d5c99" y="155.649767"/>
      </g>
     </g>
     <g id="text_15">
      <!-- 1000 -->
      <g transform="translate(102.55 159.448986)scale(0.1 -0.1)">
       <defs>
        <path d="M 794 531 
L 1825 531 
L 1825 4091 
L 703 3866 
L 703 4441 
L 1819 4666 
L 2450 4666 
L 2450 531 
L 3481 531 
L 3481 0 
L 794 0 
L 794 531 
z
" id="DejaVuSans-31" transform="scale(0.015625)"/>
       </defs>
       <use xlink:href="#DejaVuSans-31"/>
       <use x="63.623047" xlink:href="#DejaVuSans-30"/>
       <use x="127.246094" xlink:href="#DejaVuSans-30"/>
       <use x="190.869141" xlink:href="#DejaVuSans-30"/>
      </g>
     </g>
    </g>
    <g id="ytick_6">
     <g id="line2d_15">
      <g>
       <use style="stroke:#000000;stroke-width:0.8;" x="135" xlink:href="#mad904d5c99" y="118.857549"/>
      </g>
     </g>
     <g id="text_16">
      <!-- 1250 -->
      <g transform="translate(102.55 122.656767)scale(0.1 -0.1)">
       <use xlink:href="#DejaVuSans-31"/>
       <use x="63.623047" xlink:href="#DejaVuSans-32"/>
       <use x="127.246094" xlink:href="#DejaVuSans-35"/>
       <use x="190.869141" xlink:href="#DejaVuSans-30"/>
      </g>
     </g>
    </g>
    <g id="ytick_7">
     <g id="line2d_16">
      <g>
       <use style="stroke:#000000;stroke-width:0.8;" x="135" xlink:href="#mad904d5c99" y="82.065331"/>
      </g>
     </g>
     <g id="text_17">
      <!-- 1500 -->
      <g transform="translate(102.55 85.864549)scale(0.1 -0.1)">
       <use xlink:href="#DejaVuSans-31"/>
       <use x="63.623047" xlink:href="#DejaVuSans-35"/>
       <use x="127.246094" xlink:href="#DejaVuSans-30"/>
       <use x="190.869141" xlink:href="#DejaVuSans-30"/>
      </g>
     </g>
    </g>
    <g id="ytick_8">
     <g id="line2d_17">
      <g>
       <use style="stroke:#000000;stroke-width:0.8;" x="135" xlink:href="#mad904d5c99" y="45.273112"/>
      </g>
     </g>
     <g id="text_18">
      <!-- 1750 -->
      <g transform="translate(102.55 49.072331)scale(0.1 -0.1)">
       <use xlink:href="#DejaVuSans-31"/>
       <use x="63.623047" xlink:href="#DejaVuSans-37"/>
       <use x="127.246094" xlink:href="#DejaVuSans-35"/>
       <use x="190.869141" xlink:href="#DejaVuSans-30"/>
      </g>
     </g>
    </g>
    <g id="text_19">
     <!-- f(X) -->
     <g transform="translate(94.390625 197.273438)rotate(-90)scale(0.2 -0.2)">
      <defs>
       <path d="M 2375 4863 
L 2375 4384 
L 1825 4384 
Q 1516 4384 1395 4259 
Q 1275 4134 1275 3809 
L 1275 3500 
L 2222 3500 
L 2222 3053 
L 1275 3053 
L 1275 0 
L 697 0 
L 697 3053 
L 147 3053 
L 147 3500 
L 697 3500 
L 697 3744 
Q 697 4328 969 4595 
Q 1241 4863 1831 4863 
L 2375 4863 
z
" id="DejaVuSans-66" transform="scale(0.015625)"/>
       <path d="M 1984 4856 
Q 1566 4138 1362 3434 
Q 1159 2731 1159 2009 
Q 1159 1288 1364 580 
Q 1569 -128 1984 -844 
L 1484 -844 
Q 1016 -109 783 600 
Q 550 1309 550 2009 
Q 550 2706 781 3412 
Q 1013 4119 1484 4856 
L 1984 4856 
z
" id="DejaVuSans-28" transform="scale(0.015625)"/>
       <path d="M 513 4856 
L 1013 4856 
Q 1481 4119 1714 3412 
Q 1947 2706 1947 2009 
Q 1947 1309 1714 600 
Q 1481 -109 1013 -844 
L 513 -844 
Q 928 -128 1133 580 
Q 1338 1288 1338 2009 
Q 1338 2731 1133 3434 
Q 928 4138 513 4856 
z
" id="DejaVuSans-29" transform="scale(0.015625)"/>
      </defs>
      <use xlink:href="#DejaVuSans-66"/>
      <use x="35.205078" xlink:href="#DejaVuSans-28"/>
      <use x="74.21875" xlink:href="#DejaVuSans-58"/>
      <use x="142.724609" xlink:href="#DejaVuSans-29"/>
     </g>
    </g>
   </g>
   <g id="line2d_18">
    <path clip-path="url(#pa68a336013)" d="M 173.045455 302.619439 
L 193.069378 302.524302 
L 213.093301 302.401104 
L 233.117225 302.255214 
L 253.141148 302.089735 
L 273.165072 301.906759 
L 293.188995 301.707823 
L 313.212919 301.49412 
L 333.236842 301.266605 
L 353.260766 301.026073 
L 373.284689 300.773192 
L 393.308612 300.508539 
L 413.332536 300.232615 
L 433.356459 299.945865 
L 453.380383 299.648681 
L 473.404306 299.341419 
L 493.42823 299.024398 
L 513.452153 298.697911 
L 533.476077 298.362224 
L 553.5 298.017582 
L 573.523923 297.664213 
L 593.547847 297.302327 
L 613.57177 296.93212 
L 633.595694 296.553775 
L 653.619617 296.167464 
L 673.643541 295.773347 
L 693.667464 295.371576 
L 713.691388 294.962294 
L 733.715311 294.545636 
L 753.739234 294.121732 
L 773.763158 293.690702 
L 793.787081 293.252663 
L 813.811005 292.807725 
L 833.834928 292.355993 
L 853.858852 291.897568 
L 873.882775 291.432547 
L 893.906699 290.961021 
L 913.930622 290.48308 
L 933.954545 289.998808 
" style="fill:none;stroke:#ff0000;stroke-linecap:square;stroke-width:1.5;"/>
   </g>
   <g id="line2d_19">
    <path clip-path="url(#pa68a336013)" d="M 173.045455 302.645455 
L 193.069378 302.524302 
L 213.093301 302.265921 
L 233.117225 301.838958 
L 253.141148 301.21713 
L 273.165072 300.377335 
L 293.188995 299.298706 
L 313.212919 297.962067 
L 333.236842 296.349576 
L 353.260766 294.44448 
L 373.284689 292.230937 
L 393.308612 289.693879 
L 413.332536 286.818912 
L 433.356459 283.592231 
L 453.380383 280.000552 
L 473.404306 276.031059 
L 493.42823 271.671358 
L 513.452153 266.909435 
L 533.476077 261.733626 
L 553.5 256.132587 
L 573.523923 250.095269 
L 593.547847 243.610895 
L 613.57177 236.668944 
L 633.595694 229.259129 
L 653.619617 221.371386 
L 673.643541 212.99586 
L 693.667464 204.122888 
L 713.691388 194.742993 
L 733.715311 184.846872 
L 753.739234 174.425387 
L 773.763158 163.469556 
L 793.787081 151.970545 
L 813.811005 139.919662 
L 833.834928 127.308349 
L 853.858852 114.128179 
L 873.882775 100.370845 
L 893.906699 86.02816 
L 913.930622 71.092049 
L 933.954545 55.554545 
" style="fill:none;stroke:#008000;stroke-linecap:square;stroke-width:1.5;"/>
   </g>
   <g id="patch_3">
    <path d="M 135 315 
L 135 43.2 
" style="fill:none;stroke:#000000;stroke-linecap:square;stroke-linejoin:miter;stroke-width:0.8;"/>
   </g>
   <g id="patch_4">
    <path d="M 972 315 
L 972 43.2 
" style="fill:none;stroke:#000000;stroke-linecap:square;stroke-linejoin:miter;stroke-width:0.8;"/>
   </g>
   <g id="patch_5">
    <path d="M 135 315 
L 972 315 
" style="fill:none;stroke:#000000;stroke-linecap:square;stroke-linejoin:miter;stroke-width:0.8;"/>
   </g>
   <g id="patch_6">
    <path d="M 135 43.2 
L 972 43.2 
" style="fill:none;stroke:#000000;stroke-linecap:square;stroke-linejoin:miter;stroke-width:0.8;"/>
   </g>
   <g id="text_20">
    <!-- The graph of function -->
    <g transform="translate(424.0275 37.2)scale(0.24 -0.24)">
     <defs>
      <path d="M -19 4666 
L 3928 4666 
L 3928 4134 
L 2272 4134 
L 2272 0 
L 1638 0 
L 1638 4134 
L -19 4134 
L -19 4666 
z
" id="DejaVuSans-54" transform="scale(0.015625)"/>
      <path d="M 3513 2113 
L 3513 0 
L 2938 0 
L 2938 2094 
Q 2938 2591 2744 2837 
Q 2550 3084 2163 3084 
Q 1697 3084 1428 2787 
Q 1159 2491 1159 1978 
L 1159 0 
L 581 0 
L 581 4863 
L 1159 4863 
L 1159 2956 
Q 1366 3272 1645 3428 
Q 1925 3584 2291 3584 
Q 2894 3584 3203 3211 
Q 3513 2838 3513 2113 
z
" id="DejaVuSans-68" transform="scale(0.015625)"/>
      <path d="M 3597 1894 
L 3597 1613 
L 953 1613 
Q 991 1019 1311 708 
Q 1631 397 2203 397 
Q 2534 397 2845 478 
Q 3156 559 3463 722 
L 3463 178 
Q 3153 47 2828 -22 
Q 2503 -91 2169 -91 
Q 1331 -91 842 396 
Q 353 884 353 1716 
Q 353 2575 817 3079 
Q 1281 3584 2069 3584 
Q 2775 3584 3186 3129 
Q 3597 2675 3597 1894 
z
M 3022 2063 
Q 3016 2534 2758 2815 
Q 2500 3097 2075 3097 
Q 1594 3097 1305 2825 
Q 1016 2553 972 2059 
L 3022 2063 
z
" id="DejaVuSans-65" transform="scale(0.015625)"/>
      <path id="DejaVuSans-20" transform="scale(0.015625)"/>
      <path d="M 2906 1791 
Q 2906 2416 2648 2759 
Q 2391 3103 1925 3103 
Q 1463 3103 1205 2759 
Q 947 2416 947 1791 
Q 947 1169 1205 825 
Q 1463 481 1925 481 
Q 2391 481 2648 825 
Q 2906 1169 2906 1791 
z
M 3481 434 
Q 3481 -459 3084 -895 
Q 2688 -1331 1869 -1331 
Q 1566 -1331 1297 -1286 
Q 1028 -1241 775 -1147 
L 775 -588 
Q 1028 -725 1275 -790 
Q 1522 -856 1778 -856 
Q 2344 -856 2625 -561 
Q 2906 -266 2906 331 
L 2906 616 
Q 2728 306 2450 153 
Q 2172 0 1784 0 
Q 1141 0 747 490 
Q 353 981 353 1791 
Q 353 2603 747 3093 
Q 1141 3584 1784 3584 
Q 2172 3584 2450 3431 
Q 2728 3278 2906 2969 
L 2906 3500 
L 3481 3500 
L 3481 434 
z
" id="DejaVuSans-67" transform="scale(0.015625)"/>
      <path d="M 2631 2963 
Q 2534 3019 2420 3045 
Q 2306 3072 2169 3072 
Q 1681 3072 1420 2755 
Q 1159 2438 1159 1844 
L 1159 0 
L 581 0 
L 581 3500 
L 1159 3500 
L 1159 2956 
Q 1341 3275 1631 3429 
Q 1922 3584 2338 3584 
Q 2397 3584 2469 3576 
Q 2541 3569 2628 3553 
L 2631 2963 
z
" id="DejaVuSans-72" transform="scale(0.015625)"/>
      <path d="M 2194 1759 
Q 1497 1759 1228 1600 
Q 959 1441 959 1056 
Q 959 750 1161 570 
Q 1363 391 1709 391 
Q 2188 391 2477 730 
Q 2766 1069 2766 1631 
L 2766 1759 
L 2194 1759 
z
M 3341 1997 
L 3341 0 
L 2766 0 
L 2766 531 
Q 2569 213 2275 61 
Q 1981 -91 1556 -91 
Q 1019 -91 701 211 
Q 384 513 384 1019 
Q 384 1609 779 1909 
Q 1175 2209 1959 2209 
L 2766 2209 
L 2766 2266 
Q 2766 2663 2505 2880 
Q 2244 3097 1772 3097 
Q 1472 3097 1187 3025 
Q 903 2953 641 2809 
L 641 3341 
Q 956 3463 1253 3523 
Q 1550 3584 1831 3584 
Q 2591 3584 2966 3190 
Q 3341 2797 3341 1997 
z
" id="DejaVuSans-61" transform="scale(0.015625)"/>
      <path d="M 1159 525 
L 1159 -1331 
L 581 -1331 
L 581 3500 
L 1159 3500 
L 1159 2969 
Q 1341 3281 1617 3432 
Q 1894 3584 2278 3584 
Q 2916 3584 3314 3078 
Q 3713 2572 3713 1747 
Q 3713 922 3314 415 
Q 2916 -91 2278 -91 
Q 1894 -91 1617 61 
Q 1341 213 1159 525 
z
M 3116 1747 
Q 3116 2381 2855 2742 
Q 2594 3103 2138 3103 
Q 1681 3103 1420 2742 
Q 1159 2381 1159 1747 
Q 1159 1113 1420 752 
Q 1681 391 2138 391 
Q 2594 391 2855 752 
Q 3116 1113 3116 1747 
z
" id="DejaVuSans-70" transform="scale(0.015625)"/>
      <path d="M 1959 3097 
Q 1497 3097 1228 2736 
Q 959 2375 959 1747 
Q 959 1119 1226 758 
Q 1494 397 1959 397 
Q 2419 397 2687 759 
Q 2956 1122 2956 1747 
Q 2956 2369 2687 2733 
Q 2419 3097 1959 3097 
z
M 1959 3584 
Q 2709 3584 3137 3096 
Q 3566 2609 3566 1747 
Q 3566 888 3137 398 
Q 2709 -91 1959 -91 
Q 1206 -91 779 398 
Q 353 888 353 1747 
Q 353 2609 779 3096 
Q 1206 3584 1959 3584 
z
" id="DejaVuSans-6f" transform="scale(0.015625)"/>
      <path d="M 544 1381 
L 544 3500 
L 1119 3500 
L 1119 1403 
Q 1119 906 1312 657 
Q 1506 409 1894 409 
Q 2359 409 2629 706 
Q 2900 1003 2900 1516 
L 2900 3500 
L 3475 3500 
L 3475 0 
L 2900 0 
L 2900 538 
Q 2691 219 2414 64 
Q 2138 -91 1772 -91 
Q 1169 -91 856 284 
Q 544 659 544 1381 
z
M 1991 3584 
L 1991 3584 
z
" id="DejaVuSans-75" transform="scale(0.015625)"/>
      <path d="M 3513 2113 
L 3513 0 
L 2938 0 
L 2938 2094 
Q 2938 2591 2744 2837 
Q 2550 3084 2163 3084 
Q 1697 3084 1428 2787 
Q 1159 2491 1159 1978 
L 1159 0 
L 581 0 
L 581 3500 
L 1159 3500 
L 1159 2956 
Q 1366 3272 1645 3428 
Q 1925 3584 2291 3584 
Q 2894 3584 3203 3211 
Q 3513 2838 3513 2113 
z
" id="DejaVuSans-6e" transform="scale(0.015625)"/>
      <path d="M 3122 3366 
L 3122 2828 
Q 2878 2963 2633 3030 
Q 2388 3097 2138 3097 
Q 1578 3097 1268 2742 
Q 959 2388 959 1747 
Q 959 1106 1268 751 
Q 1578 397 2138 397 
Q 2388 397 2633 464 
Q 2878 531 3122 666 
L 3122 134 
Q 2881 22 2623 -34 
Q 2366 -91 2075 -91 
Q 1284 -91 818 406 
Q 353 903 353 1747 
Q 353 2603 823 3093 
Q 1294 3584 2113 3584 
Q 2378 3584 2631 3529 
Q 2884 3475 3122 3366 
z
" id="DejaVuSans-63" transform="scale(0.015625)"/>
      <path d="M 1172 4494 
L 1172 3500 
L 2356 3500 
L 2356 3053 
L 1172 3053 
L 1172 1153 
Q 1172 725 1289 603 
Q 1406 481 1766 481 
L 2356 481 
L 2356 0 
L 1766 0 
Q 1100 0 847 248 
Q 594 497 594 1153 
L 594 3053 
L 172 3053 
L 172 3500 
L 594 3500 
L 594 4494 
L 1172 4494 
z
" id="DejaVuSans-74" transform="scale(0.015625)"/>
      <path d="M 603 3500 
L 1178 3500 
L 1178 0 
L 603 0 
L 603 3500 
z
M 603 4863 
L 1178 4863 
L 1178 4134 
L 603 4134 
L 603 4863 
z
" id="DejaVuSans-69" transform="scale(0.015625)"/>
     </defs>
     <use xlink:href="#DejaVuSans-54"/>
     <use x="61.083984" xlink:href="#DejaVuSans-68"/>
     <use x="124.462891" xlink:href="#DejaVuSans-65"/>
     <use x="185.986328" xlink:href="#DejaVuSans-20"/>
     <use x="217.773438" xlink:href="#DejaVuSans-67"/>
     <use x="281.25" xlink:href="#DejaVuSans-72"/>
     <use x="322.363281" xlink:href="#DejaVuSans-61"/>
     <use x="383.642578" xlink:href="#DejaVuSans-70"/>
     <use x="447.119141" xlink:href="#DejaVuSans-68"/>
     <use x="510.498047" xlink:href="#DejaVuSans-20"/>
     <use x="542.285156" xlink:href="#DejaVuSans-6f"/>
     <use x="603.466797" xlink:href="#DejaVuSans-66"/>
     <use x="638.671875" xlink:href="#DejaVuSans-20"/>
     <use x="670.458984" xlink:href="#DejaVuSans-66"/>
     <use x="705.664062" xlink:href="#DejaVuSans-75"/>
     <use x="769.042969" xlink:href="#DejaVuSans-6e"/>
     <use x="832.421875" xlink:href="#DejaVuSans-63"/>
     <use x="887.402344" xlink:href="#DejaVuSans-74"/>
     <use x="926.611328" xlink:href="#DejaVuSans-69"/>
     <use x="954.394531" xlink:href="#DejaVuSans-6f"/>
     <use x="1015.576172" xlink:href="#DejaVuSans-6e"/>
    </g>
   </g>
   <g id="legend_1">
    <g id="patch_7">
     <path d="M 145.5 99.234375 
L 280.93125 99.234375 
Q 283.93125 99.234375 283.93125 96.234375 
L 283.93125 53.7 
Q 283.93125 50.7 280.93125 50.7 
L 145.5 50.7 
Q 142.5 50.7 142.5 53.7 
L 142.5 96.234375 
Q 142.5 99.234375 145.5 99.234375 
z
" style="fill:#ffffff;opacity:0.8;stroke:#cccccc;stroke-linejoin:miter;"/>
    </g>
    <g id="line2d_20">
     <path d="M 148.5 62.847656 
L 178.5 62.847656 
" style="fill:none;stroke:#ff0000;stroke-linecap:square;stroke-width:1.5;"/>
    </g>
    <g id="line2d_21"/>
    <g id="text_21">
     <!-- a=1 b=-1.5 -->
     <g transform="translate(190.5 68.097656)scale(0.15 -0.15)">
      <defs>
       <path d="M 678 2906 
L 4684 2906 
L 4684 2381 
L 678 2381 
L 678 2906 
z
M 678 1631 
L 4684 1631 
L 4684 1100 
L 678 1100 
L 678 1631 
z
" id="DejaVuSans-3d" transform="scale(0.015625)"/>
       <path d="M 3116 1747 
Q 3116 2381 2855 2742 
Q 2594 3103 2138 3103 
Q 1681 3103 1420 2742 
Q 1159 2381 1159 1747 
Q 1159 1113 1420 752 
Q 1681 391 2138 391 
Q 2594 391 2855 752 
Q 3116 1113 3116 1747 
z
M 1159 2969 
Q 1341 3281 1617 3432 
Q 1894 3584 2278 3584 
Q 2916 3584 3314 3078 
Q 3713 2572 3713 1747 
Q 3713 922 3314 415 
Q 2916 -91 2278 -91 
Q 1894 -91 1617 61 
Q 1341 213 1159 525 
L 1159 0 
L 581 0 
L 581 4863 
L 1159 4863 
L 1159 2969 
z
" id="DejaVuSans-62" transform="scale(0.015625)"/>
       <path d="M 313 2009 
L 1997 2009 
L 1997 1497 
L 313 1497 
L 313 2009 
z
" id="DejaVuSans-2d" transform="scale(0.015625)"/>
       <path d="M 684 794 
L 1344 794 
L 1344 0 
L 684 0 
L 684 794 
z
" id="DejaVuSans-2e" transform="scale(0.015625)"/>
      </defs>
      <use xlink:href="#DejaVuSans-61"/>
      <use x="61.279297" xlink:href="#DejaVuSans-3d"/>
      <use x="145.068359" xlink:href="#DejaVuSans-31"/>
      <use x="208.691406" xlink:href="#DejaVuSans-20"/>
      <use x="240.478516" xlink:href="#DejaVuSans-62"/>
      <use x="303.955078" xlink:href="#DejaVuSans-3d"/>
      <use x="387.744141" xlink:href="#DejaVuSans-2d"/>
      <use x="423.828125" xlink:href="#DejaVuSans-31"/>
      <use x="487.451172" xlink:href="#DejaVuSans-2e"/>
      <use x="519.238281" xlink:href="#DejaVuSans-35"/>
     </g>
    </g>
    <g id="line2d_22">
     <path d="M 148.5 84.864844 
L 178.5 84.864844 
" style="fill:none;stroke:#008000;stroke-linecap:square;stroke-width:1.5;"/>
    </g>
    <g id="line2d_23"/>
    <g id="text_22">
     <!-- a=1 b=-2.5 -->
     <g transform="translate(190.5 90.114844)scale(0.15 -0.15)">
      <use xlink:href="#DejaVuSans-61"/>
      <use x="61.279297" xlink:href="#DejaVuSans-3d"/>
      <use x="145.068359" xlink:href="#DejaVuSans-31"/>
      <use x="208.691406" xlink:href="#DejaVuSans-20"/>
      <use x="240.478516" xlink:href="#DejaVuSans-62"/>
      <use x="303.955078" xlink:href="#DejaVuSans-3d"/>
      <use x="387.744141" xlink:href="#DejaVuSans-2d"/>
      <use x="423.828125" xlink:href="#DejaVuSans-32"/>
      <use x="487.451172" xlink:href="#DejaVuSans-2e"/>
      <use x="519.238281" xlink:href="#DejaVuSans-35"/>
     </g>
    </g>
   </g>
  </g>
 </g>
 <defs>
  <clipPath id="pa68a336013">
   <rect height="271.8" width="837" x="135" y="43.2"/>
  </clipPath>
 </defs>
</svg>
