<?xml version="1.0" encoding="utf-8" standalone="no"?>
<!DOCTYPE svg PUBLIC "-//W3C//DTD SVG 1.1//EN"
  "http://www.w3.org/Graphics/SVG/1.1/DTD/svg11.dtd">
<svg height="540pt" version="1.1" viewBox="0 0 1080 540" width="1080pt" xmlns="http://www.w3.org/2000/svg" xmlns:xlink="http://www.w3.org/1999/xlink">
 <metadata>
  <rdf:RDF xmlns:cc="http://creativecommons.org/ns#" xmlns:dc="http://purl.org/dc/elements/1.1/" xmlns:rdf="http://www.w3.org/1999/02/22-rdf-syntax-ns#">
   <cc:Work>
    <dc:type rdf:resource="http://purl.org/dc/dcmitype/StillImage"/>
    <dc:date>2022-04-15T21:55:39.107186</dc:date>
    <dc:format>image/svg+xml</dc:format>
    <dc:creator>
     <cc:Agent>
      <dc:title>Matplotlib v3.4.3, https://matplotlib.org/</dc:title>
     </cc:Agent>
    </dc:creator>
   </cc:Work>
  </rdf:RDF>
 </metadata>
 <defs>
  <style type="text/css">*{stroke-linecap:butt;stroke-linejoin:round;}</style>
 </defs>
 <g id="figure_1">
  <g id="patch_1">
   <path d="M 0 540 
L 1080 540 
L 1080 0 
L 0 0 
z
" style="fill:none;"/>
  </g>
  <g id="axes_1">
   <g id="patch_2">
    <path d="M 135 472.5 
L 972 472.5 
L 972 64.8 
L 135 64.8 
z
" style="fill:#ffffff;"/>
   </g>
   <g id="matplotlib.axis_1">
    <g id="xtick_1">
     <g id="line2d_1">
      <defs>
       <path d="M 0 0 
L 0 3.5 
" id="mfb5286570b" style="stroke:#000000;stroke-width:0.8;"/>
      </defs>
      <g>
       <use style="stroke:#000000;stroke-width:0.8;" x="157.193182" xlink:href="#mfb5286570b" y="472.5"/>
      </g>
     </g>
     <g id="text_1">
      <!-- 50 -->
      <g transform="translate(150.830682 487.098437)scale(0.1 -0.1)">
       <defs>
        <path d="M 691 4666 
L 3169 4666 
L 3169 4134 
L 1269 4134 
L 1269 2991 
Q 1406 3038 1543 3061 
Q 1681 3084 1819 3084 
Q 2600 3084 3056 2656 
Q 3513 2228 3513 1497 
Q 3513 744 3044 326 
Q 2575 -91 1722 -91 
Q 1428 -91 1123 -41 
Q 819 9 494 109 
L 494 744 
Q 775 591 1075 516 
Q 1375 441 1709 441 
Q 2250 441 2565 725 
Q 2881 1009 2881 1497 
Q 2881 1984 2565 2268 
Q 2250 2553 1709 2553 
Q 1456 2553 1204 2497 
Q 953 2441 691 2322 
L 691 4666 
z
" id="DejaVuSans-35" transform="scale(0.015625)"/>
        <path d="M 2034 4250 
Q 1547 4250 1301 3770 
Q 1056 3291 1056 2328 
Q 1056 1369 1301 889 
Q 1547 409 2034 409 
Q 2525 409 2770 889 
Q 3016 1369 3016 2328 
Q 3016 3291 2770 3770 
Q 2525 4250 2034 4250 
z
M 2034 4750 
Q 2819 4750 3233 4129 
Q 3647 3509 3647 2328 
Q 3647 1150 3233 529 
Q 2819 -91 2034 -91 
Q 1250 -91 836 529 
Q 422 1150 422 2328 
Q 422 3509 836 4129 
Q 1250 4750 2034 4750 
z
" id="DejaVuSans-30" transform="scale(0.015625)"/>
       </defs>
       <use xlink:href="#DejaVuSans-35"/>
       <use x="63.623047" xlink:href="#DejaVuSans-30"/>
      </g>
     </g>
    </g>
    <g id="xtick_2">
     <g id="line2d_2">
      <g>
       <use style="stroke:#000000;stroke-width:0.8;" x="315.715909" xlink:href="#mfb5286570b" y="472.5"/>
      </g>
     </g>
     <g id="text_2">
      <!-- 60 -->
      <g transform="translate(309.353409 487.098437)scale(0.1 -0.1)">
       <defs>
        <path d="M 2113 2584 
Q 1688 2584 1439 2293 
Q 1191 2003 1191 1497 
Q 1191 994 1439 701 
Q 1688 409 2113 409 
Q 2538 409 2786 701 
Q 3034 994 3034 1497 
Q 3034 2003 2786 2293 
Q 2538 2584 2113 2584 
z
M 3366 4563 
L 3366 3988 
Q 3128 4100 2886 4159 
Q 2644 4219 2406 4219 
Q 1781 4219 1451 3797 
Q 1122 3375 1075 2522 
Q 1259 2794 1537 2939 
Q 1816 3084 2150 3084 
Q 2853 3084 3261 2657 
Q 3669 2231 3669 1497 
Q 3669 778 3244 343 
Q 2819 -91 2113 -91 
Q 1303 -91 875 529 
Q 447 1150 447 2328 
Q 447 3434 972 4092 
Q 1497 4750 2381 4750 
Q 2619 4750 2861 4703 
Q 3103 4656 3366 4563 
z
" id="DejaVuSans-36" transform="scale(0.015625)"/>
       </defs>
       <use xlink:href="#DejaVuSans-36"/>
       <use x="63.623047" xlink:href="#DejaVuSans-30"/>
      </g>
     </g>
    </g>
    <g id="xtick_3">
     <g id="line2d_3">
      <g>
       <use style="stroke:#000000;stroke-width:0.8;" x="474.238636" xlink:href="#mfb5286570b" y="472.5"/>
      </g>
     </g>
     <g id="text_3">
      <!-- 70 -->
      <g transform="translate(467.876136 487.098437)scale(0.1 -0.1)">
       <defs>
        <path d="M 525 4666 
L 3525 4666 
L 3525 4397 
L 1831 0 
L 1172 0 
L 2766 4134 
L 525 4134 
L 525 4666 
z
" id="DejaVuSans-37" transform="scale(0.015625)"/>
       </defs>
       <use xlink:href="#DejaVuSans-37"/>
       <use x="63.623047" xlink:href="#DejaVuSans-30"/>
      </g>
     </g>
    </g>
    <g id="xtick_4">
     <g id="line2d_4">
      <g>
       <use style="stroke:#000000;stroke-width:0.8;" x="632.761364" xlink:href="#mfb5286570b" y="472.5"/>
      </g>
     </g>
     <g id="text_4">
      <!-- 80 -->
      <g transform="translate(626.398864 487.098437)scale(0.1 -0.1)">
       <defs>
        <path d="M 2034 2216 
Q 1584 2216 1326 1975 
Q 1069 1734 1069 1313 
Q 1069 891 1326 650 
Q 1584 409 2034 409 
Q 2484 409 2743 651 
Q 3003 894 3003 1313 
Q 3003 1734 2745 1975 
Q 2488 2216 2034 2216 
z
M 1403 2484 
Q 997 2584 770 2862 
Q 544 3141 544 3541 
Q 544 4100 942 4425 
Q 1341 4750 2034 4750 
Q 2731 4750 3128 4425 
Q 3525 4100 3525 3541 
Q 3525 3141 3298 2862 
Q 3072 2584 2669 2484 
Q 3125 2378 3379 2068 
Q 3634 1759 3634 1313 
Q 3634 634 3220 271 
Q 2806 -91 2034 -91 
Q 1263 -91 848 271 
Q 434 634 434 1313 
Q 434 1759 690 2068 
Q 947 2378 1403 2484 
z
M 1172 3481 
Q 1172 3119 1398 2916 
Q 1625 2713 2034 2713 
Q 2441 2713 2670 2916 
Q 2900 3119 2900 3481 
Q 2900 3844 2670 4047 
Q 2441 4250 2034 4250 
Q 1625 4250 1398 4047 
Q 1172 3844 1172 3481 
z
" id="DejaVuSans-38" transform="scale(0.015625)"/>
       </defs>
       <use xlink:href="#DejaVuSans-38"/>
       <use x="63.623047" xlink:href="#DejaVuSans-30"/>
      </g>
     </g>
    </g>
    <g id="xtick_5">
     <g id="line2d_5">
      <g>
       <use style="stroke:#000000;stroke-width:0.8;" x="791.284091" xlink:href="#mfb5286570b" y="472.5"/>
      </g>
     </g>
     <g id="text_5">
      <!-- 90 -->
      <g transform="translate(784.921591 487.098437)scale(0.1 -0.1)">
       <defs>
        <path d="M 703 97 
L 703 672 
Q 941 559 1184 500 
Q 1428 441 1663 441 
Q 2288 441 2617 861 
Q 2947 1281 2994 2138 
Q 2813 1869 2534 1725 
Q 2256 1581 1919 1581 
Q 1219 1581 811 2004 
Q 403 2428 403 3163 
Q 403 3881 828 4315 
Q 1253 4750 1959 4750 
Q 2769 4750 3195 4129 
Q 3622 3509 3622 2328 
Q 3622 1225 3098 567 
Q 2575 -91 1691 -91 
Q 1453 -91 1209 -44 
Q 966 3 703 97 
z
M 1959 2075 
Q 2384 2075 2632 2365 
Q 2881 2656 2881 3163 
Q 2881 3666 2632 3958 
Q 2384 4250 1959 4250 
Q 1534 4250 1286 3958 
Q 1038 3666 1038 3163 
Q 1038 2656 1286 2365 
Q 1534 2075 1959 2075 
z
" id="DejaVuSans-39" transform="scale(0.015625)"/>
       </defs>
       <use xlink:href="#DejaVuSans-39"/>
       <use x="63.623047" xlink:href="#DejaVuSans-30"/>
      </g>
     </g>
    </g>
    <g id="xtick_6">
     <g id="line2d_6">
      <g>
       <use style="stroke:#000000;stroke-width:0.8;" x="949.806818" xlink:href="#mfb5286570b" y="472.5"/>
      </g>
     </g>
     <g id="text_6">
      <!-- 100 -->
      <g transform="translate(940.263068 487.098437)scale(0.1 -0.1)">
       <defs>
        <path d="M 794 531 
L 1825 531 
L 1825 4091 
L 703 3866 
L 703 4441 
L 1819 4666 
L 2450 4666 
L 2450 531 
L 3481 531 
L 3481 0 
L 794 0 
L 794 531 
z
" id="DejaVuSans-31" transform="scale(0.015625)"/>
       </defs>
       <use xlink:href="#DejaVuSans-31"/>
       <use x="63.623047" xlink:href="#DejaVuSans-30"/>
       <use x="127.246094" xlink:href="#DejaVuSans-30"/>
      </g>
     </g>
    </g>
    <g id="text_7">
     <!-- X -->
     <g transform="translate(546.65 508.375)scale(0.2 -0.2)">
      <defs>
       <path d="M 403 4666 
L 1081 4666 
L 2241 2931 
L 3406 4666 
L 4084 4666 
L 2584 2425 
L 4184 0 
L 3506 0 
L 2194 1984 
L 872 0 
L 191 0 
L 1856 2491 
L 403 4666 
z
" id="DejaVuSans-58" transform="scale(0.015625)"/>
      </defs>
      <use xlink:href="#DejaVuSans-58"/>
     </g>
    </g>
   </g>
   <g id="matplotlib.axis_2">
    <g id="ytick_1">
     <g id="line2d_7">
      <defs>
       <path d="M 0 0 
L -3.5 0 
" id="m7bf6f73ae0" style="stroke:#000000;stroke-width:0.8;"/>
      </defs>
      <g>
       <use style="stroke:#000000;stroke-width:0.8;" x="135" xlink:href="#m7bf6f73ae0" y="427.000286"/>
      </g>
     </g>
     <g id="text_8">
      <!-- −75 -->
      <g transform="translate(106.895313 430.799504)scale(0.1 -0.1)">
       <defs>
        <path d="M 678 2272 
L 4684 2272 
L 4684 1741 
L 678 1741 
L 678 2272 
z
" id="DejaVuSans-2212" transform="scale(0.015625)"/>
       </defs>
       <use xlink:href="#DejaVuSans-2212"/>
       <use x="83.789062" xlink:href="#DejaVuSans-37"/>
       <use x="147.412109" xlink:href="#DejaVuSans-35"/>
      </g>
     </g>
    </g>
    <g id="ytick_2">
     <g id="line2d_8">
      <g>
       <use style="stroke:#000000;stroke-width:0.8;" x="135" xlink:href="#m7bf6f73ae0" y="374.216857"/>
      </g>
     </g>
     <g id="text_9">
      <!-- −50 -->
      <g transform="translate(106.895313 378.016076)scale(0.1 -0.1)">
       <use xlink:href="#DejaVuSans-2212"/>
       <use x="83.789062" xlink:href="#DejaVuSans-35"/>
       <use x="147.412109" xlink:href="#DejaVuSans-30"/>
      </g>
     </g>
    </g>
    <g id="ytick_3">
     <g id="line2d_9">
      <g>
       <use style="stroke:#000000;stroke-width:0.8;" x="135" xlink:href="#m7bf6f73ae0" y="321.433429"/>
      </g>
     </g>
     <g id="text_10">
      <!-- −25 -->
      <g transform="translate(106.895313 325.232647)scale(0.1 -0.1)">
       <defs>
        <path d="M 1228 531 
L 3431 531 
L 3431 0 
L 469 0 
L 469 531 
Q 828 903 1448 1529 
Q 2069 2156 2228 2338 
Q 2531 2678 2651 2914 
Q 2772 3150 2772 3378 
Q 2772 3750 2511 3984 
Q 2250 4219 1831 4219 
Q 1534 4219 1204 4116 
Q 875 4013 500 3803 
L 500 4441 
Q 881 4594 1212 4672 
Q 1544 4750 1819 4750 
Q 2544 4750 2975 4387 
Q 3406 4025 3406 3419 
Q 3406 3131 3298 2873 
Q 3191 2616 2906 2266 
Q 2828 2175 2409 1742 
Q 1991 1309 1228 531 
z
" id="DejaVuSans-32" transform="scale(0.015625)"/>
       </defs>
       <use xlink:href="#DejaVuSans-2212"/>
       <use x="83.789062" xlink:href="#DejaVuSans-32"/>
       <use x="147.412109" xlink:href="#DejaVuSans-35"/>
      </g>
     </g>
    </g>
    <g id="ytick_4">
     <g id="line2d_10">
      <g>
       <use style="stroke:#000000;stroke-width:0.8;" x="135" xlink:href="#m7bf6f73ae0" y="268.65"/>
      </g>
     </g>
     <g id="text_11">
      <!-- 0 -->
      <g transform="translate(121.6375 272.449219)scale(0.1 -0.1)">
       <use xlink:href="#DejaVuSans-30"/>
      </g>
     </g>
    </g>
    <g id="ytick_5">
     <g id="line2d_11">
      <g>
       <use style="stroke:#000000;stroke-width:0.8;" x="135" xlink:href="#m7bf6f73ae0" y="215.866571"/>
      </g>
     </g>
     <g id="text_12">
      <!-- 25 -->
      <g transform="translate(115.275 219.66579)scale(0.1 -0.1)">
       <use xlink:href="#DejaVuSans-32"/>
       <use x="63.623047" xlink:href="#DejaVuSans-35"/>
      </g>
     </g>
    </g>
    <g id="ytick_6">
     <g id="line2d_12">
      <g>
       <use style="stroke:#000000;stroke-width:0.8;" x="135" xlink:href="#m7bf6f73ae0" y="163.083143"/>
      </g>
     </g>
     <g id="text_13">
      <!-- 50 -->
      <g transform="translate(115.275 166.882362)scale(0.1 -0.1)">
       <use xlink:href="#DejaVuSans-35"/>
       <use x="63.623047" xlink:href="#DejaVuSans-30"/>
      </g>
     </g>
    </g>
    <g id="ytick_7">
     <g id="line2d_13">
      <g>
       <use style="stroke:#000000;stroke-width:0.8;" x="135" xlink:href="#m7bf6f73ae0" y="110.299714"/>
      </g>
     </g>
     <g id="text_14">
      <!-- 75 -->
      <g transform="translate(115.275 114.098933)scale(0.1 -0.1)">
       <use xlink:href="#DejaVuSans-37"/>
       <use x="63.623047" xlink:href="#DejaVuSans-35"/>
      </g>
     </g>
    </g>
    <g id="text_15">
     <!-- F(X) -->
     <g transform="translate(98.735938 289.054688)rotate(-90)scale(0.2 -0.2)">
      <defs>
       <path d="M 628 4666 
L 3309 4666 
L 3309 4134 
L 1259 4134 
L 1259 2759 
L 3109 2759 
L 3109 2228 
L 1259 2228 
L 1259 0 
L 628 0 
L 628 4666 
z
" id="DejaVuSans-46" transform="scale(0.015625)"/>
       <path d="M 1984 4856 
Q 1566 4138 1362 3434 
Q 1159 2731 1159 2009 
Q 1159 1288 1364 580 
Q 1569 -128 1984 -844 
L 1484 -844 
Q 1016 -109 783 600 
Q 550 1309 550 2009 
Q 550 2706 781 3412 
Q 1013 4119 1484 4856 
L 1984 4856 
z
" id="DejaVuSans-28" transform="scale(0.015625)"/>
       <path d="M 513 4856 
L 1013 4856 
Q 1481 4119 1714 3412 
Q 1947 2706 1947 2009 
Q 1947 1309 1714 600 
Q 1481 -109 1013 -844 
L 513 -844 
Q 928 -128 1133 580 
Q 1338 1288 1338 2009 
Q 1338 2731 1133 3434 
Q 928 4138 513 4856 
z
" id="DejaVuSans-29" transform="scale(0.015625)"/>
      </defs>
      <use xlink:href="#DejaVuSans-46"/>
      <use x="57.519531" xlink:href="#DejaVuSans-28"/>
      <use x="96.533203" xlink:href="#DejaVuSans-58"/>
      <use x="165.039062" xlink:href="#DejaVuSans-29"/>
     </g>
    </g>
   </g>
   <g id="line2d_14">
    <path clip-path="url(#pb670866c98)" d="M 173.045455 263.200346 
L 188.897727 264.178116 
L 204.75 264.611285 
L 220.602273 264.869504 
L 236.454545 265.045722 
L 252.306818 265.175801 
L 268.159091 265.276898 
L 284.011364 265.35839 
L 299.863636 265.42589 
L 315.715909 265.482994 
L 331.568182 265.532122 
L 347.420455 265.574974 
L 363.272727 265.61278 
L 379.125 265.64646 
L 394.977273 265.676713 
L 410.829545 265.704084 
L 426.681818 265.729002 
L 442.534091 265.751814 
L 458.386364 265.7728 
L 474.238636 265.792192 
L 490.090909 265.810182 
L 505.943182 265.826931 
L 521.795455 265.842576 
L 537.647727 265.857232 
L 553.5 265.870999 
L 569.352273 265.883965 
L 585.204545 265.896203 
L 601.056818 265.90778 
L 616.909091 265.918753 
L 632.761364 265.929172 
L 648.613636 265.939083 
L 664.465909 265.948526 
L 680.318182 265.957536 
L 696.170455 265.966146 
L 712.022727 265.974384 
L 727.875 265.982277 
L 743.727273 265.989847 
L 759.579545 265.997116 
L 775.431818 266.004104 
L 791.284091 266.010829 
L 807.136364 266.017305 
L 822.988636 266.023549 
L 838.840909 266.029574 
L 854.693182 266.035393 
L 870.545455 266.041016 
L 886.397727 266.046455 
L 902.25 266.051719 
L 918.102273 266.056818 
L 933.954545 266.06176 
" style="fill:none;stroke:#ff0000;stroke-linecap:square;stroke-width:1.5;"/>
   </g>
   <g id="line2d_15">
    <path clip-path="url(#pb670866c98)" d="M 173.045455 274.099654 
L 188.897727 273.121884 
L 204.75 272.688715 
L 220.602273 272.430496 
L 236.454545 272.254278 
L 252.306818 272.124199 
L 268.159091 272.023102 
L 284.011364 271.94161 
L 299.863636 271.87411 
L 315.715909 271.817006 
L 331.568182 271.767878 
L 347.420455 271.725026 
L 363.272727 271.68722 
L 379.125 271.65354 
L 394.977273 271.623287 
L 410.829545 271.595916 
L 426.681818 271.570998 
L 442.534091 271.548186 
L 458.386364 271.5272 
L 474.238636 271.507808 
L 490.090909 271.489818 
L 505.943182 271.473069 
L 521.795455 271.457424 
L 537.647727 271.442768 
L 553.5 271.429001 
L 569.352273 271.416035 
L 585.204545 271.403797 
L 601.056818 271.39222 
L 616.909091 271.381247 
L 632.761364 271.370828 
L 648.613636 271.360917 
L 664.465909 271.351474 
L 680.318182 271.342464 
L 696.170455 271.333854 
L 712.022727 271.325616 
L 727.875 271.317723 
L 743.727273 271.310153 
L 759.579545 271.302884 
L 775.431818 271.295896 
L 791.284091 271.289171 
L 807.136364 271.282695 
L 822.988636 271.276451 
L 838.840909 271.270426 
L 854.693182 271.264607 
L 870.545455 271.258984 
L 886.397727 271.253545 
L 902.25 271.248281 
L 918.102273 271.243182 
L 933.954545 271.23824 
" style="fill:none;stroke:#00bfbf;stroke-linecap:square;stroke-width:1.5;"/>
   </g>
   <g id="line2d_16">
    <path clip-path="url(#pb670866c98)" d="M 173.045455 265.203336 
L 188.897727 264.650226 
L 204.75 264.225809 
L 220.602273 263.868009 
L 236.454545 263.552781 
L 252.306818 263.267793 
L 268.159091 263.00572 
L 284.011364 262.761788 
L 299.863636 262.532682 
L 315.715909 262.315989 
L 331.568182 262.109885 
L 347.420455 261.912955 
L 363.272727 261.724073 
L 379.125 261.542327 
L 394.977273 261.366964 
L 410.829545 261.197355 
L 426.681818 261.032969 
L 442.534091 260.873351 
L 458.386364 260.718108 
L 474.238636 260.5669 
L 490.090909 260.419426 
L 505.943182 260.275425 
L 521.795455 260.13466 
L 537.647727 259.996924 
L 553.5 259.862029 
L 569.352273 259.729805 
L 585.204545 259.600101 
L 601.056818 259.472777 
L 616.909091 259.347708 
L 632.761364 259.224776 
L 648.613636 259.103878 
L 664.465909 258.984913 
L 680.318182 258.867794 
L 696.170455 258.752436 
L 712.022727 258.638763 
L 727.875 258.526702 
L 743.727273 258.416187 
L 759.579545 258.307155 
L 775.431818 258.199549 
L 791.284091 258.093314 
L 807.136364 257.988399 
L 822.988636 257.884756 
L 838.840909 257.782339 
L 854.693182 257.681107 
L 870.545455 257.581018 
L 886.397727 257.482035 
L 902.25 257.384123 
L 918.102273 257.287247 
L 933.954545 257.191375 
" style="fill:none;stroke:#bf00bf;stroke-linecap:square;stroke-width:1.5;"/>
   </g>
   <g id="line2d_17">
    <path clip-path="url(#pb670866c98)" d="M 173.045455 272.096664 
L 188.897727 272.649774 
L 204.75 273.074191 
L 220.602273 273.431991 
L 236.454545 273.747219 
L 252.306818 274.032207 
L 268.159091 274.29428 
L 284.011364 274.538212 
L 299.863636 274.767318 
L 315.715909 274.984011 
L 331.568182 275.190115 
L 347.420455 275.387045 
L 363.272727 275.575927 
L 379.125 275.757673 
L 394.977273 275.933036 
L 410.829545 276.102645 
L 426.681818 276.267031 
L 442.534091 276.426649 
L 458.386364 276.581892 
L 474.238636 276.7331 
L 490.090909 276.880574 
L 505.943182 277.024575 
L 521.795455 277.16534 
L 537.647727 277.303076 
L 553.5 277.437971 
L 569.352273 277.570195 
L 585.204545 277.699899 
L 601.056818 277.827223 
L 616.909091 277.952292 
L 632.761364 278.075224 
L 648.613636 278.196122 
L 664.465909 278.315087 
L 680.318182 278.432206 
L 696.170455 278.547564 
L 712.022727 278.661237 
L 727.875 278.773298 
L 743.727273 278.883813 
L 759.579545 278.992845 
L 775.431818 279.100451 
L 791.284091 279.206686 
L 807.136364 279.311601 
L 822.988636 279.415244 
L 838.840909 279.517661 
L 854.693182 279.618893 
L 870.545455 279.718982 
L 886.397727 279.817965 
L 902.25 279.915877 
L 918.102273 280.012753 
L 933.954545 280.108625 
" style="fill:none;stroke:#bfbf00;stroke-linecap:square;stroke-width:1.5;"/>
   </g>
   <g id="line2d_18">
    <path clip-path="url(#pb670866c98)" d="M 173.045455 266.004532 
L 188.897727 265.027913 
L 204.75 263.763238 
L 220.602273 262.265617 
L 236.454545 260.5669 
L 252.306818 258.688576 
L 268.159091 256.646423 
L 284.011364 254.452664 
L 299.863636 252.117133 
L 315.715909 249.647966 
L 331.568182 247.052039 
L 347.420455 244.335265 
L 363.272727 241.502798 
L 379.125 238.559184 
L 394.977273 235.508471 
L 410.829545 232.354295 
L 426.681818 229.099946 
L 442.534091 225.748416 
L 458.386364 222.302446 
L 474.238636 218.764557 
L 490.090909 215.137077 
L 505.943182 211.422167 
L 521.795455 207.621839 
L 537.647727 203.73797 
L 553.5 199.77232 
L 569.352273 195.726543 
L 585.204545 191.602195 
L 601.056818 187.400745 
L 616.909091 183.123583 
L 632.761364 178.772026 
L 648.613636 174.347325 
L 664.465909 169.850671 
L 680.318182 165.283195 
L 696.170455 160.64598 
L 712.022727 155.94006 
L 727.875 151.166422 
L 743.727273 146.326016 
L 759.579545 141.419748 
L 775.431818 136.448492 
L 791.284091 131.413086 
L 807.136364 126.314337 
L 822.988636 121.153024 
L 838.840909 115.929894 
L 854.693182 110.645672 
L 870.545455 105.301055 
L 886.397727 99.896719 
L 902.25 94.433316 
L 918.102273 88.911479 
L 933.954545 83.331818 
" style="fill:none;stroke:#0000ff;stroke-linecap:square;stroke-width:1.5;"/>
   </g>
   <g id="line2d_19">
    <path clip-path="url(#pb670866c98)" d="M 173.045455 271.295468 
L 188.897727 272.272087 
L 204.75 273.536762 
L 220.602273 275.034383 
L 236.454545 276.7331 
L 252.306818 278.611424 
L 268.159091 280.653577 
L 284.011364 282.847336 
L 299.863636 285.182867 
L 315.715909 287.652034 
L 331.568182 290.247961 
L 347.420455 292.964735 
L 363.272727 295.797202 
L 379.125 298.740816 
L 394.977273 301.791529 
L 410.829545 304.945705 
L 426.681818 308.200054 
L 442.534091 311.551584 
L 458.386364 314.997554 
L 474.238636 318.535443 
L 490.090909 322.162923 
L 505.943182 325.877833 
L 521.795455 329.678161 
L 537.647727 333.56203 
L 553.5 337.52768 
L 569.352273 341.573457 
L 585.204545 345.697805 
L 601.056818 349.899255 
L 616.909091 354.176417 
L 632.761364 358.527974 
L 648.613636 362.952675 
L 664.465909 367.449329 
L 680.318182 372.016805 
L 696.170455 376.65402 
L 712.022727 381.35994 
L 727.875 386.133578 
L 743.727273 390.973984 
L 759.579545 395.880252 
L 775.431818 400.851508 
L 791.284091 405.886914 
L 807.136364 410.985663 
L 822.988636 416.146976 
L 838.840909 421.370106 
L 854.693182 426.654328 
L 870.545455 431.998945 
L 886.397727 437.403281 
L 902.25 442.866684 
L 918.102273 448.388521 
L 933.954545 453.968182 
" style="fill:none;stroke:#008000;stroke-linecap:square;stroke-width:1.5;"/>
   </g>
   <g id="patch_3">
    <path d="M 135 472.5 
L 135 64.8 
" style="fill:none;stroke:#000000;stroke-linecap:square;stroke-linejoin:miter;stroke-width:0.8;"/>
   </g>
   <g id="patch_4">
    <path d="M 972 472.5 
L 972 64.8 
" style="fill:none;stroke:#000000;stroke-linecap:square;stroke-linejoin:miter;stroke-width:0.8;"/>
   </g>
   <g id="patch_5">
    <path d="M 135 472.5 
L 972 472.5 
" style="fill:none;stroke:#000000;stroke-linecap:square;stroke-linejoin:miter;stroke-width:0.8;"/>
   </g>
   <g id="patch_6">
    <path d="M 135 64.8 
L 972 64.8 
" style="fill:none;stroke:#000000;stroke-linecap:square;stroke-linejoin:miter;stroke-width:0.8;"/>
   </g>
   <g id="text_16">
    <!-- The graph of function -->
    <g transform="translate(424.0275 58.8)scale(0.24 -0.24)">
     <defs>
      <path d="M -19 4666 
L 3928 4666 
L 3928 4134 
L 2272 4134 
L 2272 0 
L 1638 0 
L 1638 4134 
L -19 4134 
L -19 4666 
z
" id="DejaVuSans-54" transform="scale(0.015625)"/>
      <path d="M 3513 2113 
L 3513 0 
L 2938 0 
L 2938 2094 
Q 2938 2591 2744 2837 
Q 2550 3084 2163 3084 
Q 1697 3084 1428 2787 
Q 1159 2491 1159 1978 
L 1159 0 
L 581 0 
L 581 4863 
L 1159 4863 
L 1159 2956 
Q 1366 3272 1645 3428 
Q 1925 3584 2291 3584 
Q 2894 3584 3203 3211 
Q 3513 2838 3513 2113 
z
" id="DejaVuSans-68" transform="scale(0.015625)"/>
      <path d="M 3597 1894 
L 3597 1613 
L 953 1613 
Q 991 1019 1311 708 
Q 1631 397 2203 397 
Q 2534 397 2845 478 
Q 3156 559 3463 722 
L 3463 178 
Q 3153 47 2828 -22 
Q 2503 -91 2169 -91 
Q 1331 -91 842 396 
Q 353 884 353 1716 
Q 353 2575 817 3079 
Q 1281 3584 2069 3584 
Q 2775 3584 3186 3129 
Q 3597 2675 3597 1894 
z
M 3022 2063 
Q 3016 2534 2758 2815 
Q 2500 3097 2075 3097 
Q 1594 3097 1305 2825 
Q 1016 2553 972 2059 
L 3022 2063 
z
" id="DejaVuSans-65" transform="scale(0.015625)"/>
      <path id="DejaVuSans-20" transform="scale(0.015625)"/>
      <path d="M 2906 1791 
Q 2906 2416 2648 2759 
Q 2391 3103 1925 3103 
Q 1463 3103 1205 2759 
Q 947 2416 947 1791 
Q 947 1169 1205 825 
Q 1463 481 1925 481 
Q 2391 481 2648 825 
Q 2906 1169 2906 1791 
z
M 3481 434 
Q 3481 -459 3084 -895 
Q 2688 -1331 1869 -1331 
Q 1566 -1331 1297 -1286 
Q 1028 -1241 775 -1147 
L 775 -588 
Q 1028 -725 1275 -790 
Q 1522 -856 1778 -856 
Q 2344 -856 2625 -561 
Q 2906 -266 2906 331 
L 2906 616 
Q 2728 306 2450 153 
Q 2172 0 1784 0 
Q 1141 0 747 490 
Q 353 981 353 1791 
Q 353 2603 747 3093 
Q 1141 3584 1784 3584 
Q 2172 3584 2450 3431 
Q 2728 3278 2906 2969 
L 2906 3500 
L 3481 3500 
L 3481 434 
z
" id="DejaVuSans-67" transform="scale(0.015625)"/>
      <path d="M 2631 2963 
Q 2534 3019 2420 3045 
Q 2306 3072 2169 3072 
Q 1681 3072 1420 2755 
Q 1159 2438 1159 1844 
L 1159 0 
L 581 0 
L 581 3500 
L 1159 3500 
L 1159 2956 
Q 1341 3275 1631 3429 
Q 1922 3584 2338 3584 
Q 2397 3584 2469 3576 
Q 2541 3569 2628 3553 
L 2631 2963 
z
" id="DejaVuSans-72" transform="scale(0.015625)"/>
      <path d="M 2194 1759 
Q 1497 1759 1228 1600 
Q 959 1441 959 1056 
Q 959 750 1161 570 
Q 1363 391 1709 391 
Q 2188 391 2477 730 
Q 2766 1069 2766 1631 
L 2766 1759 
L 2194 1759 
z
M 3341 1997 
L 3341 0 
L 2766 0 
L 2766 531 
Q 2569 213 2275 61 
Q 1981 -91 1556 -91 
Q 1019 -91 701 211 
Q 384 513 384 1019 
Q 384 1609 779 1909 
Q 1175 2209 1959 2209 
L 2766 2209 
L 2766 2266 
Q 2766 2663 2505 2880 
Q 2244 3097 1772 3097 
Q 1472 3097 1187 3025 
Q 903 2953 641 2809 
L 641 3341 
Q 956 3463 1253 3523 
Q 1550 3584 1831 3584 
Q 2591 3584 2966 3190 
Q 3341 2797 3341 1997 
z
" id="DejaVuSans-61" transform="scale(0.015625)"/>
      <path d="M 1159 525 
L 1159 -1331 
L 581 -1331 
L 581 3500 
L 1159 3500 
L 1159 2969 
Q 1341 3281 1617 3432 
Q 1894 3584 2278 3584 
Q 2916 3584 3314 3078 
Q 3713 2572 3713 1747 
Q 3713 922 3314 415 
Q 2916 -91 2278 -91 
Q 1894 -91 1617 61 
Q 1341 213 1159 525 
z
M 3116 1747 
Q 3116 2381 2855 2742 
Q 2594 3103 2138 3103 
Q 1681 3103 1420 2742 
Q 1159 2381 1159 1747 
Q 1159 1113 1420 752 
Q 1681 391 2138 391 
Q 2594 391 2855 752 
Q 3116 1113 3116 1747 
z
" id="DejaVuSans-70" transform="scale(0.015625)"/>
      <path d="M 1959 3097 
Q 1497 3097 1228 2736 
Q 959 2375 959 1747 
Q 959 1119 1226 758 
Q 1494 397 1959 397 
Q 2419 397 2687 759 
Q 2956 1122 2956 1747 
Q 2956 2369 2687 2733 
Q 2419 3097 1959 3097 
z
M 1959 3584 
Q 2709 3584 3137 3096 
Q 3566 2609 3566 1747 
Q 3566 888 3137 398 
Q 2709 -91 1959 -91 
Q 1206 -91 779 398 
Q 353 888 353 1747 
Q 353 2609 779 3096 
Q 1206 3584 1959 3584 
z
" id="DejaVuSans-6f" transform="scale(0.015625)"/>
      <path d="M 2375 4863 
L 2375 4384 
L 1825 4384 
Q 1516 4384 1395 4259 
Q 1275 4134 1275 3809 
L 1275 3500 
L 2222 3500 
L 2222 3053 
L 1275 3053 
L 1275 0 
L 697 0 
L 697 3053 
L 147 3053 
L 147 3500 
L 697 3500 
L 697 3744 
Q 697 4328 969 4595 
Q 1241 4863 1831 4863 
L 2375 4863 
z
" id="DejaVuSans-66" transform="scale(0.015625)"/>
      <path d="M 544 1381 
L 544 3500 
L 1119 3500 
L 1119 1403 
Q 1119 906 1312 657 
Q 1506 409 1894 409 
Q 2359 409 2629 706 
Q 2900 1003 2900 1516 
L 2900 3500 
L 3475 3500 
L 3475 0 
L 2900 0 
L 2900 538 
Q 2691 219 2414 64 
Q 2138 -91 1772 -91 
Q 1169 -91 856 284 
Q 544 659 544 1381 
z
M 1991 3584 
L 1991 3584 
z
" id="DejaVuSans-75" transform="scale(0.015625)"/>
      <path d="M 3513 2113 
L 3513 0 
L 2938 0 
L 2938 2094 
Q 2938 2591 2744 2837 
Q 2550 3084 2163 3084 
Q 1697 3084 1428 2787 
Q 1159 2491 1159 1978 
L 1159 0 
L 581 0 
L 581 3500 
L 1159 3500 
L 1159 2956 
Q 1366 3272 1645 3428 
Q 1925 3584 2291 3584 
Q 2894 3584 3203 3211 
Q 3513 2838 3513 2113 
z
" id="DejaVuSans-6e" transform="scale(0.015625)"/>
      <path d="M 3122 3366 
L 3122 2828 
Q 2878 2963 2633 3030 
Q 2388 3097 2138 3097 
Q 1578 3097 1268 2742 
Q 959 2388 959 1747 
Q 959 1106 1268 751 
Q 1578 397 2138 397 
Q 2388 397 2633 464 
Q 2878 531 3122 666 
L 3122 134 
Q 2881 22 2623 -34 
Q 2366 -91 2075 -91 
Q 1284 -91 818 406 
Q 353 903 353 1747 
Q 353 2603 823 3093 
Q 1294 3584 2113 3584 
Q 2378 3584 2631 3529 
Q 2884 3475 3122 3366 
z
" id="DejaVuSans-63" transform="scale(0.015625)"/>
      <path d="M 1172 4494 
L 1172 3500 
L 2356 3500 
L 2356 3053 
L 1172 3053 
L 1172 1153 
Q 1172 725 1289 603 
Q 1406 481 1766 481 
L 2356 481 
L 2356 0 
L 1766 0 
Q 1100 0 847 248 
Q 594 497 594 1153 
L 594 3053 
L 172 3053 
L 172 3500 
L 594 3500 
L 594 4494 
L 1172 4494 
z
" id="DejaVuSans-74" transform="scale(0.015625)"/>
      <path d="M 603 3500 
L 1178 3500 
L 1178 0 
L 603 0 
L 603 3500 
z
M 603 4863 
L 1178 4863 
L 1178 4134 
L 603 4134 
L 603 4863 
z
" id="DejaVuSans-69" transform="scale(0.015625)"/>
     </defs>
     <use xlink:href="#DejaVuSans-54"/>
     <use x="61.083984" xlink:href="#DejaVuSans-68"/>
     <use x="124.462891" xlink:href="#DejaVuSans-65"/>
     <use x="185.986328" xlink:href="#DejaVuSans-20"/>
     <use x="217.773438" xlink:href="#DejaVuSans-67"/>
     <use x="281.25" xlink:href="#DejaVuSans-72"/>
     <use x="322.363281" xlink:href="#DejaVuSans-61"/>
     <use x="383.642578" xlink:href="#DejaVuSans-70"/>
     <use x="447.119141" xlink:href="#DejaVuSans-68"/>
     <use x="510.498047" xlink:href="#DejaVuSans-20"/>
     <use x="542.285156" xlink:href="#DejaVuSans-6f"/>
     <use x="603.466797" xlink:href="#DejaVuSans-66"/>
     <use x="638.671875" xlink:href="#DejaVuSans-20"/>
     <use x="670.458984" xlink:href="#DejaVuSans-66"/>
     <use x="705.664062" xlink:href="#DejaVuSans-75"/>
     <use x="769.042969" xlink:href="#DejaVuSans-6e"/>
     <use x="832.421875" xlink:href="#DejaVuSans-63"/>
     <use x="887.402344" xlink:href="#DejaVuSans-74"/>
     <use x="926.611328" xlink:href="#DejaVuSans-69"/>
     <use x="954.394531" xlink:href="#DejaVuSans-6f"/>
     <use x="1015.576172" xlink:href="#DejaVuSans-6e"/>
    </g>
   </g>
   <g id="legend_1">
    <g id="patch_7">
     <path d="M 149 168.86875 
L 329.575 168.86875 
Q 333.575 168.86875 333.575 164.86875 
L 333.575 78.8 
Q 333.575 74.8 329.575 74.8 
L 149 74.8 
Q 145 74.8 145 78.8 
L 145 164.86875 
Q 145 168.86875 149 168.86875 
z
" style="fill:#ffffff;opacity:0.8;stroke:#cccccc;stroke-linejoin:miter;"/>
    </g>
    <g id="line2d_20">
     <path d="M 153 90.996875 
L 193 90.996875 
" style="fill:none;stroke:#ff0000;stroke-linecap:square;stroke-width:1.5;"/>
    </g>
    <g id="line2d_21"/>
    <g id="text_17">
     <!-- a=1 b=0.5 -->
     <g transform="translate(209 97.996875)scale(0.2 -0.2)">
      <defs>
       <path d="M 678 2906 
L 4684 2906 
L 4684 2381 
L 678 2381 
L 678 2906 
z
M 678 1631 
L 4684 1631 
L 4684 1100 
L 678 1100 
L 678 1631 
z
" id="DejaVuSans-3d" transform="scale(0.015625)"/>
       <path d="M 3116 1747 
Q 3116 2381 2855 2742 
Q 2594 3103 2138 3103 
Q 1681 3103 1420 2742 
Q 1159 2381 1159 1747 
Q 1159 1113 1420 752 
Q 1681 391 2138 391 
Q 2594 391 2855 752 
Q 3116 1113 3116 1747 
z
M 1159 2969 
Q 1341 3281 1617 3432 
Q 1894 3584 2278 3584 
Q 2916 3584 3314 3078 
Q 3713 2572 3713 1747 
Q 3713 922 3314 415 
Q 2916 -91 2278 -91 
Q 1894 -91 1617 61 
Q 1341 213 1159 525 
L 1159 0 
L 581 0 
L 581 4863 
L 1159 4863 
L 1159 2969 
z
" id="DejaVuSans-62" transform="scale(0.015625)"/>
       <path d="M 684 794 
L 1344 794 
L 1344 0 
L 684 0 
L 684 794 
z
" id="DejaVuSans-2e" transform="scale(0.015625)"/>
      </defs>
      <use xlink:href="#DejaVuSans-61"/>
      <use x="61.279297" xlink:href="#DejaVuSans-3d"/>
      <use x="145.068359" xlink:href="#DejaVuSans-31"/>
      <use x="208.691406" xlink:href="#DejaVuSans-20"/>
      <use x="240.478516" xlink:href="#DejaVuSans-62"/>
      <use x="303.955078" xlink:href="#DejaVuSans-3d"/>
      <use x="387.744141" xlink:href="#DejaVuSans-30"/>
      <use x="451.367188" xlink:href="#DejaVuSans-2e"/>
      <use x="483.154297" xlink:href="#DejaVuSans-35"/>
     </g>
    </g>
    <g id="line2d_22">
     <path d="M 153 120.353125 
L 193 120.353125 
" style="fill:none;stroke:#bf00bf;stroke-linecap:square;stroke-width:1.5;"/>
    </g>
    <g id="line2d_23"/>
    <g id="text_18">
     <!-- a=1 b=-1.5 -->
     <g transform="translate(209 127.353125)scale(0.2 -0.2)">
      <defs>
       <path d="M 313 2009 
L 1997 2009 
L 1997 1497 
L 313 1497 
L 313 2009 
z
" id="DejaVuSans-2d" transform="scale(0.015625)"/>
      </defs>
      <use xlink:href="#DejaVuSans-61"/>
      <use x="61.279297" xlink:href="#DejaVuSans-3d"/>
      <use x="145.068359" xlink:href="#DejaVuSans-31"/>
      <use x="208.691406" xlink:href="#DejaVuSans-20"/>
      <use x="240.478516" xlink:href="#DejaVuSans-62"/>
      <use x="303.955078" xlink:href="#DejaVuSans-3d"/>
      <use x="387.744141" xlink:href="#DejaVuSans-2d"/>
      <use x="423.828125" xlink:href="#DejaVuSans-31"/>
      <use x="487.451172" xlink:href="#DejaVuSans-2e"/>
      <use x="519.238281" xlink:href="#DejaVuSans-35"/>
     </g>
    </g>
    <g id="line2d_24">
     <path d="M 153 149.709375 
L 193 149.709375 
" style="fill:none;stroke:#0000ff;stroke-linecap:square;stroke-width:1.5;"/>
    </g>
    <g id="line2d_25"/>
    <g id="text_19">
     <!-- a=1 b=-0.5 -->
     <g transform="translate(209 156.709375)scale(0.2 -0.2)">
      <use xlink:href="#DejaVuSans-61"/>
      <use x="61.279297" xlink:href="#DejaVuSans-3d"/>
      <use x="145.068359" xlink:href="#DejaVuSans-31"/>
      <use x="208.691406" xlink:href="#DejaVuSans-20"/>
      <use x="240.478516" xlink:href="#DejaVuSans-62"/>
      <use x="303.955078" xlink:href="#DejaVuSans-3d"/>
      <use x="387.744141" xlink:href="#DejaVuSans-2d"/>
      <use x="423.828125" xlink:href="#DejaVuSans-30"/>
      <use x="487.451172" xlink:href="#DejaVuSans-2e"/>
      <use x="519.238281" xlink:href="#DejaVuSans-35"/>
     </g>
    </g>
   </g>
  </g>
 </g>
 <defs>
  <clipPath id="pb670866c98">
   <rect height="407.7" width="837" x="135" y="64.8"/>
  </clipPath>
 </defs>
</svg>
